<svg xml:space="preserve" style="enable-background:new 0 0 2500 2500;" viewBox="0 0 2500 2500" y="0px" x="0px" xmlns:xlink="http://www.w3.org/1999/xlink" xmlns="http://www.w3.org/2000/svg" id="Layer" version="1.1">
<style type="text/css">
	.st0{fill:#FF5757;}
	.st1{fill:#160059;}
	.st2{fill:#0C7737;}
	.st3{fill:#FFC700;}
	.st4{fill:#251F52;}
	.st5{fill:#FFFFFF;}
</style>
<path d="M1837.6,1217.9c51.9-89.9,21.1-204.9-68.8-256.9c-89.9-51.9-204.9-21.1-256.9,68.8L1837.6,1217.9z" class="st0"></path>
<path d="M1849.9,825.8c0,0-78,32.9-130.2-14.8c-55.1-50.3-24.5-85.3-3.9-87.4C1776.6,717.2,1849.9,825.8,1849.9,825.8
	L1849.9,825.8z" class="st1"></path>
<polygon points="1577.4,1964.8 1569.6,1945.3 1561.4,1918.3 1615.4,1902 1623.5,1929 1631.3,1966.5 1637,1985.3 
	1560.7,2022.9 1544.3,2032.5 1525.2,1999.6 1541.6,1990" class="st0"></polygon>
<path d="M1565.7,1945c4.8-0.7,9.4-2.6,14.2-3.4c3.3-0.5,5.6-3.7,5.1-7c-0.5-3.3-3.7-5.6-7-5.1c-4.7,0.8-9.2,2.7-14,3.4
	c-3.3,0.5-5.7,3.6-5.2,6.9C1559.2,1943.2,1562.4,1945.5,1565.7,1945L1565.7,1945z" class="st1"></path>
<path d="M1572.5,1966.2c5.2,0,10.4,0.3,15.5,0.1c3.4-0.1,6-2.9,5.9-6.3c-0.1-3.4-2.9-6-6.3-5.9
	c-5.1,0.2-10.2-0.2-15.3-0.1c-3.4,0-6.1,2.8-6,6.2C1566.4,1963.5,1569.2,1966.3,1572.5,1966.2L1572.5,1966.2z" class="st1"></path>
<polygon points="1943.5,1817.1 1924.2,1808.9 1899.4,1795.6 1926,1745.9 1950.8,1759.2 1982.9,1780.2 2000.2,1789.5 
	1972.8,1870 1967.9,1888.4 1931.2,1878.6 1936,1860.2" class="st0"></polygon>
<path d="M1921.2,1811.4c2.9-3.9,4.8-8.5,7.6-12.4c2-2.7,1.4-6.6-1.4-8.5c-2.7-2-6.6-1.4-8.5,1.4
	c-2.8,3.9-4.6,8.4-7.5,12.3c-2,2.7-1.5,6.5,1.2,8.5C1915.4,1814.7,1919.2,1814.1,1921.2,1811.4L1921.2,1811.4z" class="st1"></path>
<path d="M1941.1,1821.6c3.6-3.7,7.5-7.1,11.1-10.9c2.3-2.5,2.2-6.3-0.3-8.6c-2.5-2.3-6.3-2.2-8.6,0.3
	c-3.5,3.7-7.3,7.1-10.9,10.7c-2.4,2.4-2.3,6.3,0.1,8.6C1934.8,1824,1938.7,1824,1941.1,1821.6L1941.1,1821.6z" class="st1"></path>
<path d="M1868.1,1705l-221.1-126.5l-0.4-3l1.7-1l80.3-127l16.5-28.4l42-60.4l-232-85.3l-16.3,6.3l0-0.1l-1.2,0.6
	l-26.2,10.2l1.4,1.9l-27.2,13.2l-81.2,42.6c-18.4,9.7-34.9,22.3-47.7,38.1c-12.7,15.7-22.9,33.6-28.5,53.4c-5.5,19.7-7.6,40-5,59.8
	c2.6,19.7,8.5,39,18.9,56.4l178.1,298l19.4,34.9l69.9-38.7l-19.4-34.9l-158.5-308.9c-2.8-5.4-3.7-11.4-4.1-17.3
	c-0.4-5.7,1-11.4,3-17c1.9-5.4,5.4-9.9,9.2-14c3.7-4,8.5-6.6,13.6-8.9l83.8-37.3l49.1-23.8l23.8,31.1l-53.8,101.8
	c-6.8,12.9-11.6,26.7-12.8,40.9c-1.2,14.1-0.3,28.6,4.3,42.3c4.5,13.6,11,26.4,20.4,36.9c9.3,10.4,20.1,19.7,33,25.7l230.3,108.8
	l35.4,18.5l36.9-70.9L1868.1,1705z" class="st2"></path>
<path d="M1598.1,1169.9l-58.4,60.4c-1,1.1-2.5,1.5-3.9,1.3c-1.4-0.3-2.6-1.2-3.2-2.6l-39.7-93.1
	c-0.9-2.2,0.1-4.8,2.3-5.7c2.2-0.9,4.8,0.1,5.7,2.3l37.1,87l58.7-60.7c1-1.1,2.6-1.6,4.1-1.2c1.5,0.3,2.7,1.4,3.2,2.8l33,92.3
	l64.9-65.7c1-1,2.4-1.5,3.8-1.2c1.4,0.2,2.6,1.1,3.2,2.4l50.5,104.4c1,2.2,0.1,4.8-2,5.8c-2.2,1-4.8,0.1-5.8-2l-47.8-98.9
	l-65.5,66.3c-1.1,1.1-2.6,1.5-4.1,1.2c-1.5-0.3-2.7-1.4-3.2-2.8L1598.1,1169.9z" class="st1"></path>
<path d="M1257,644.5c-13.7-18.6-32.8-37.7-55.1-45.2c-3.8-1.3-11.3-3.3-17.2-2.6c-5.2,0.7-9.2,3.3-10.2,8.9
	c-0.6,3.4,0.1,6.8,1.6,10c2,4.1,5.3,7.8,8.3,10.6c10.2,9.4,21.3,17.6,31.2,27.3c1.5,1.4,3.8,1.4,5.2-0.1c1.4-1.5,1.4-3.8-0.1-5.2
	c-10-9.7-21.2-18-31.4-27.4c-2-1.9-4.3-4.2-5.9-6.9c-1.3-2.2-2.2-4.5-1.8-7c0.4-2,2-2.7,3.9-2.9c4.7-0.6,10.8,1.2,13.9,2.2
	c21,7.1,38.7,25.1,51.6,42.6c1.2,1.6,3.5,2,5.2,0.8C1257.8,648.5,1258.2,646.2,1257,644.5L1257,644.5z" class="st1"></path>
<path d="M1250.7,664c-6.2-4.3-12.4-8.7-19.2-12c-6.9-3.3-15.6-3.9-22.7-1.9c-5.1,1.5-9.4,4.4-11.8,8.5
	c-2.5,4.4-3.1,10.3,0.3,17.8c2.9,6.5,8.9,11.4,16.2,14.8c10.2,4.7,22.9,6.3,32,5.5c3.5-0.3,9.2-1.5,13.6-3.9c3.6-2,6.2-4.9,6.9-8.5
	c0.4-2-0.9-3.9-2.9-4.3c-2-0.4-3.9,0.9-4.3,2.9c-0.3,1.6-1.7,2.6-3.3,3.4c-3.4,1.9-7.9,2.8-10.6,3c-8,0.7-19.2-0.7-28.2-4.8
	c-5.5-2.6-10.3-6.1-12.5-11.1c-2.1-4.7-2.2-8.4-0.6-11.1c1.5-2.5,4.2-4.2,7.4-5.1c5.4-1.6,12.1-1,17.5,1.5
	c6.5,3.1,12.3,7.2,18.1,11.3c1.7,1.2,4,0.8,5.1-0.9C1252.8,667.5,1252.4,665.2,1250.7,664L1250.7,664z" class="st1"></path>
<path d="M1205.2,683.2c-3,1.4-6.2,2.8-8.7,4.8c-9.1,7.2-6.4,20.4,1,27.5c5.9,5.6,22,10.5,34.9,9
	c9.6-1.1,17.2-5.6,18.9-14.4c0.4-2-0.9-3.9-2.9-4.3c-2-0.4-3.9,0.9-4.3,2.9c-1.1,5.6-6.4,7.8-12.5,8.5c-10.6,1.2-24-2.3-28.9-7
	c-4.4-4.2-7-12-1.5-16.3c2.1-1.7,4.8-2.8,7.2-3.9c1.9-0.8,2.7-3,1.8-4.9C1209.3,683.2,1207.1,682.4,1205.2,683.2L1205.2,683.2z" class="st1"></path>
<path d="M1266.2,756.4c69.6,81.9,153,159.3,234.6,230c1.5,1.3,3.8,1.1,5.1-0.4c1.3-1.5,1.1-3.8-0.4-5.1
	c-81.3-70.4-164.4-147.5-233.8-229.2c-1.3-1.5-3.6-1.7-5.1-0.4C1265,752.6,1264.9,754.9,1266.2,756.4L1266.2,756.4z" class="st1"></path>
<path d="M1251.4,649c99.2,75.8,215,169.9,316,263.5c1.5,1.4,3.8,1.3,5.1-0.2c1.4-1.5,1.3-3.8-0.2-5.1
	c-101.1-93.8-217.2-188.1-316.5-264c-1.6-1.2-3.9-0.9-5.1,0.7C1249.5,645.5,1249.8,647.8,1251.4,649L1251.4,649z" class="st1"></path>
<path d="M1204.9,714.8c-2,1.5-3.8,3.8-4.5,6.2c-3.2,11.2,4.8,20.2,14.5,24c8.2,3.3,19.1,2.6,26.4-2.2
	c3.2-2.1,5.4-4.9,8.1-7.4c1.5-1.4,1.5-3.7,0.1-5.2c-1.4-1.5-3.7-1.5-5.2-0.1c-2.4,2.2-4.2,4.8-7,6.6c-5.5,3.6-13.5,4-19.7,1.5
	c-6.3-2.5-12.2-7.9-10.1-15.1c0.3-0.9,1-1.7,1.8-2.3c1.7-1.2,2-3.5,0.8-5.2C1208.9,714,1206.5,713.6,1204.9,714.8L1204.9,714.8z" class="st1"></path>
<path d="M1724,804.8c-24.9,27.2-29.4,52.8-22,71.8c7.5,19.3,27.4,32.3,52.4,33.8c8.4,0.5,17.4-1.6,25.3-4.3
	c18.5-6.3,30.1-18.2,38.8-32.6c8.4-13.8,14.1-30.1,20.8-45.6c0.8-1.9,0-4.1-1.9-4.9c-1.9-0.8-4.1,0-4.9,1.9
	c-6.6,15.3-12.2,31.2-20.4,44.8c-7.9,13-18.3,23.8-34.9,29.4c-7,2.4-15,4.4-22.4,3.9c-21.8-1.3-39.4-12.3-46-29.1
	c-6.7-17.1-1.8-39.8,20.6-64.2c1.4-1.5,1.3-3.8-0.2-5.2C1727.7,803.2,1725.3,803.3,1724,804.8L1724,804.8z" class="st1"></path>
<path d="M1851.6,825.8c0,0-54.2-48.2-69.4-65.1c-45.1-50.2,40.9-95,64-26.6C1859,772,1852.9,801.8,1851.6,825.8
	L1851.6,825.8z" class="st1"></path>
<path d="M1814.1,868.7c25.7-13.5,57.4-33.4,69.1-60c5.8-13.1,1.6-32-16.8-24c-14.4,6.3-21.8,20.1-28.6,32.9
	C1830.6,831.3,1814.1,868.7,1814.1,868.7L1814.1,868.7z" class="st1"></path>
<path d="M1951,1375.4c40.6-53.3,55.3-130.9,42.9-197.4c-13.7-73.4-61.6-141.6-131.3-164.4
	c-33.2-10.9-68.9,2.6-81.7,35.2c-12.8,32.5,5.5,64.1,34.7,82.9c44.5,28.7,67,41,81.3,78.1c16.2,42,19.3,90.2-0.8,130.1
	c-0.9,1.8-0.2,4.1,1.7,5c1.9,0.9,4.1,0.2,5-1.7c21-41.8,18-92.2,1.1-136.2c-14.9-38.7-37.9-51.9-84.2-81.7
	c-26.1-16.8-43.2-44.8-31.8-73.8c11.3-28.8,43-40.4,72.4-30.8c67.2,22,113.1,88,126.3,158.6c12.1,64.5-2.1,139.8-41.5,191.5
	c-1.3,1.6-0.9,4,0.7,5.3C1947.4,1377.4,1949.7,1377.1,1951,1375.4L1951,1375.4z" class="st1"></path>
<path d="M1868.4,1388.6c-4.7-0.3-9.7-0.6-14.4-1.5c-7.5-1.3-14.6-3.9-20.2-9.6c-8.7-8.9-5-24.6,5.2-30.2
	c6-3.3,14-2.9,20.4-2c10,1.3,20.7,3.7,30.2,6.9c2,0.7,3,2.8,2.4,4.8c-0.7,2-2.8,3-4.8,2.4c-9.1-3.1-19.3-5.3-28.8-6.6
	c-4.9-0.6-11.2-1.4-15.8,1.2c-6.2,3.4-8.8,12.9-3.5,18.4c4.4,4.5,10.1,6.4,16.1,7.5c6.7,1.2,13.7,1.2,20,1.9
	c1.5,0.2,2.3,0.9,2.8,1.6c0.5,0.7,0.8,1.5,0.8,2.5c0,0.6-0.2,1.4-0.7,2.2c-0.4,0.6-1.3,1.5-1.6,2c-0.7,1-1.3,2-2,3
	c-2.3,3.3-4.8,6.4-7.5,9.3c-1.9,2.1-3.8,4.1-5.7,6.2c-3.9,4.3-10.3,11.9-13.1,19.7c-1.5,4.2-2,8.5,0.6,11.9c0.8,1,2.1,1.3,3.4,1.4
	c1.9,0.1,3.8-0.2,5.3-0.8c4.3-1.6,8.1-4.8,11.7-8.5c4-4,7.7-8.4,11.2-12c2.3-2.3,4.5-4.9,6.7-7.3c0.1-0.2,1.7-2,2.1-2.3
	c1.8-1.5,3.5-0.9,4-0.7c1,0.4,1.6,1.1,2,1.7c0.6,0.9,0.8,1.9,0.6,3c-0.1,0.8-0.6,1.9-1.7,2.9c-0.7,0.7-1.9,1.5-2.4,2.2
	c-1.9,2.7-3.7,5.7-5.4,8.6c-2.7,4.7-6.1,9.9-8.1,15.3c-1.7,4.6-2.2,9.4,0.4,14.2c0.6,1.1,1.6,1.4,2.7,1.3c1.2-0.1,2.5-0.5,3.7-0.9
	c7.2-2.9,11.7-11,15.9-17.3c1.8-2.7,3.7-5.4,5.1-8.3c0.6-1.1,1-2.3,1.6-3.4c0.3-0.6,1.1-2.2,1.3-2.4c1.7-2.2,3.8-1.5,4.5-1.2
	c0.3,0.1,3.1,1.3,2.1,4.6c-2.3,7.7-6.4,16.5-8.2,25.1c-1.5,7.5-1.1,14.9,5.1,21.1c3,3,6.6,1.8,9.8-0.4c4.2-2.9,8-7.6,9.9-11.2
	c9.2-17.1,13.4-38.8,7.2-57.6c-0.9-2.7-2-7.1-3.6-10.8c-0.8-1.8-1.7-3.5-2.9-4.3c-1.7-1.2-2.2-3.5-1-5.2c1.2-1.7,3.5-2.2,5.2-1
	c2.2,1.5,4.1,4.2,5.6,7.5c1.7,3.9,2.9,8.5,3.9,11.5c6.9,20.7,2.4,44.6-7.7,63.5c-2.9,5.4-9.1,12.8-15.8,15.9
	c-5.4,2.4-11,2.3-15.8-2.4c-7.9-7.7-9.1-16.9-7.5-26.2c-3.4,4.1-7.2,7.7-11.9,9.6c-5.6,2.2-12.2,2.5-15.7-3.7
	c-3.8-6.8-3.3-13.7-0.9-20.4c0.1-0.3,0.2-0.6,0.3-0.9c-3.6,3.2-7.4,6-11.5,7.5c-2.9,1.1-6.9,1.7-10.4,1c-2.8-0.5-5.3-1.9-7-4.1
	c-4.2-5.5-4.2-12.2-1.8-19c3.1-8.7,10.2-17.4,14.6-22.2c1.9-2.1,3.8-4.1,5.7-6.2C1863.8,1394.5,1866.2,1391.6,1868.4,1388.6
	L1868.4,1388.6z" class="st1"></path>
<path d="M2101.9,972.2c260.7,52.8,341.1,215.6,328.9,340.4c-11.8,120.3-105.8,196.5-204.6,254.4
	c-118.8,69.5-269.9,74.3-403.7,91.6c-253.1,32.8-569.6,102.8-735.4,311.4c-40.2,50.5-43.7,115.7-15.8,172.4
	c25.9,52.5,78.8,97.7,154.7,116.7c112.7,28.2,276.3-1.4,476.4-152.2c1.7-1.3,2-3.6,0.7-5.3c-1.3-1.7-3.6-2-5.3-0.7
	c-197.5,148.8-358.9,178.7-470.1,150.9c-73.4-18.4-124.7-61.9-149.7-112.7c-26.6-54-23.4-116.2,14.9-164.3
	c164.6-207.1,479.2-276,730.5-308.6c134.8-17.5,286.9-22.6,406.6-92.6c101-59.1,196.3-137.3,208.3-260.1
	c12.5-127.4-68.7-294.6-334.9-348.5c-2-0.4-4,0.9-4.5,3C2098.5,969.7,2099.8,971.7,2101.9,972.2L2101.9,972.2z" class="st1"></path>
<polygon points="1585.7,487.5 1688.3,506.9 1605.2,590.1" class="st3"></polygon>
<path d="M2243.4,2245.9c1.5,0,2.8-0.8,3.6-2c0.7-1.3,0.7-2.8,0-4.1l-55.9-94.7c-0.7-1.2-2.1-2-3.5-2
	c-1.4,0-2.8,0.8-3.5,2l-54.1,93.3c-0.7,1.3-0.7,2.8,0,4.1c0.7,1.3,2,2,3.5,2.1L2243.4,2245.9z M2140.5,2236.5l95.7,1.2l-48.6-82.4
	L2140.5,2236.5z" class="st1"></path>
<path d="M878.3,559.1c-17.1,0-30.9,13.9-30.9,30.9c0,17.1,13.9,30.9,30.9,30.9c17.1,0,30.9-13.9,30.9-30.9
	C909.2,573,895.3,559.1,878.3,559.1L878.3,559.1z M878.3,566.7c12.9,0,23.4,10.5,23.4,23.4c0,12.9-10.5,23.4-23.4,23.4
	c-12.9,0-23.4-10.5-23.4-23.4C854.9,577.2,865.4,566.7,878.3,566.7L878.3,566.7z" class="st1"></path>
<path d="M1330.1,2092.1c15,0,27.2,12.2,27.2,27.2c0,15-12.2,27.2-27.2,27.2s-27.2-12.2-27.2-27.2
	C1303,2104.3,1315.1,2092.1,1330.1,2092.1L1330.1,2092.1z" class="st1"></path>
<path d="M1243,1153.7c15,0,27.2,12.2,27.2,27.2c0,15-12.2,27.2-27.2,27.2c-15,0-27.2-12.2-27.2-27.2
	C1215.8,1165.8,1228,1153.7,1243,1153.7L1243,1153.7z" class="st1"></path>
<path d="M2190.2,1290.7c-17.1,0-30.9,13.9-30.9,30.9c0,17.1,13.9,30.9,30.9,30.9c17.1,0,30.9-13.9,30.9-30.9
	C2221.1,1304.6,2207.3,1290.7,2190.2,1290.7L2190.2,1290.7z M2190.2,1298.2c12.9,0,23.4,10.5,23.4,23.4c0,12.9-10.5,23.4-23.4,23.4
	c-12.9,0-23.4-10.5-23.4-23.4C2166.8,1308.7,2177.3,1298.2,2190.2,1298.2L2190.2,1298.2z" class="st1"></path>
<g transform="matrix(-0.685749,-0.158115,-0.171811,0.745149,1180.53,414.907)">
	<path d="M209.2,688.1c0-4.8-2.1-9.4-5.8-12.8c-3.7-3.4-8.7-5.3-13.9-5.3c-30.2,0-87.5,0-117.6,0
		c-5.2,0-10.2,1.9-13.9,5.3c-3.7,3.4-5.8,8-5.8,12.8c0,49.3,0,185,0,234.3c0,4.8,2.1,9.4,5.8,12.8c3.7,3.4,8.7,5.3,13.9,5.3
		c30.2,0,87.4,0,117.6,0c5.2,0,10.2-1.9,13.9-5.3c3.7-3.4,5.8-8,5.8-12.8C209.2,873.1,209.2,737.3,209.2,688.1z" class="st4"></path>
</g>
<g transform="matrix(-0.22588,-0.0520817,-0.0304543,0.132081,682.104,305.838)">
	<path d="M-1643.2,3923.4c0-17.1-4-33.4-11-45.5c-7-12.1-16.6-18.8-26.6-18.8c-24.8,0-57.1,0-81.9,0
		c-10,0-19.5,6.8-26.6,18.8c-7,12.1-11,28.4-11,45.5c0,42.9,0,99.1,0,142c0,17,4,33.4,11,45.5c7,12.1,16.6,18.8,26.6,18.8
		c24.8,0,57.1,0,81.9,0c10,0,19.5-6.8,26.6-18.8c7-12.1,11-28.4,11-45.5C-1643.2,4022.5-1643.2,3966.3-1643.2,3923.4z" class="st5"></path>
</g>
<g transform="matrix(-0.162179,-0.0373942,-0.0218659,0.0948328,609.822,310.308)">
	<path d="M-2718,5834.6c0,44.8,0,105.8,0,150.7c0,26.9-6.2,52.7-17.4,71.8c-11.1,19-26.2,29.7-42,29.7
		c-25.9,0-61,0-86.9,0c-15.7,0-30.8-10.7-42-29.7c-11.1-19-17.4-44.9-17.4-71.8c0-44.8,0-105.8,0-150.7c0-26.9,6.3-52.7,17.4-71.8
		c11.2-19,26.2-29.7,42-29.7c25.9,0,61,0,86.9,0c15.7,0,30.9,10.7,42,29.7C-2724.3,5781.8-2718,5807.6-2718,5834.6L-2718,5834.6z
		 M-2766.6,5834.6c0-4.9-1.1-9.6-3.1-13c-2-3.5-4.8-5.4-7.6-5.4c-25.9,0-61,0-86.9,0c-2.8,0-5.6,1.9-7.6,5.4c-2,3.5-3.1,8.1-3.1,13
		c0,44.8,0,105.8,0,150.7c0,4.9,1.1,9.6,3.1,13c2,3.4,4.8,5.4,7.6,5.4c25.9,0,61,0,86.9,0c2.9,0,5.6-1.9,7.6-5.4
		c2-3.5,3.1-8.1,3.1-13L-2766.6,5834.6z" class="st5"></path>
</g>
<g transform="matrix(-0.299266,0.0196509,0.0216225,0.329291,398.859,290.005)">
	<path d="M94.7,5262.6l-134.8,53.3l-67.4,20l44,122.4l67.4-20l222.8-45.6l69.4-20.6l-4.6-187.6l-8.7-95l-209.2,15.9
		l8.7,95L94.7,5262.6z" class="st3"></path>
</g>
<g transform="matrix(-0.556041,0.0365117,0.0365117,0.556041,493.53,-61.035)">
	<path d="M253.3,3671.1c9,0.6,18-1.2,27-0.7c6.8,0.3,12,6.1,11.6,12.9c-0.3,6.8-6.1,12-12.9,11.6
		c-9.1-0.5-18.2,1.3-27.3,0.7c-6.7-0.5-11.9-6.3-11.4-13C240.7,3675.8,246.5,3670.6,253.3,3671.1z" class="st4"></path>
</g>
<g transform="matrix(-0.556041,0.0365117,0.0365117,0.556041,493.53,-61.035)">
	<path d="M260.7,3713.1c9.3,1.9,18.6,4.5,28,6.2c6.7,1.2,11.1,7.6,9.9,14.2c-1.2,6.6-7.6,11.1-14.2,9.9
		c-9.6-1.7-19-4.3-28.5-6.3c-6.6-1.3-10.9-7.8-9.6-14.4C247.6,3716.1,254.1,3711.8,260.7,3713.1z" class="st4"></path>
</g>
<g transform="matrix(-0.290899,-0.072967,-0.0802877,0.320085,555.363,338.649)">
	<path d="M-1647.4,4848.1l-134.8,53.3l-67.4,20l44,122.4l67.4-20l222.8-45.6l69.4-20.6l-4.6-187.6l-8.7-95l-209.2,15.9
		l8.7,95L-1647.4,4848.1z" class="st3"></path>
</g>
<g transform="matrix(-0.540495,-0.135574,-0.135574,0.540495,753.016,33.4846)">
	<path d="M-684.4,3425.6c9,0.6,18-1.2,27-0.7c6.8,0.3,12,6.1,11.6,12.9c-0.3,6.8-6.1,12-12.9,11.6
		c-9.1-0.5-18.2,1.3-27.3,0.7c-6.7-0.5-11.9-6.3-11.4-13C-696.9,3430.3-691.1,3425.2-684.4,3425.6z" class="st4"></path>
</g>
<g transform="matrix(-0.540495,-0.135574,-0.135574,0.540495,753.016,33.4846)">
	<path d="M-676.9,3467.7c9.3,1.9,18.6,4.5,28,6.2c6.7,1.2,11.1,7.6,9.9,14.2c-1.2,6.6-7.6,11.1-14.2,9.9
		c-9.6-1.7-19-4.3-28.5-6.3c-6.6-1.3-10.9-7.8-9.6-14.4C-690,3470.6-683.5,3466.3-676.9,3467.7z" class="st4"></path>
</g>
<g transform="matrix(0.257285,0.445631,-0.445631,0.257285,491.756,-159.363)">
	<path d="M2123.6,844.5c-194.8,0-352.8,157.9-352.8,352.8c0,194.8,157.9,352.8,352.8,352.8V844.5z" class="st3"></path>
</g>
<g transform="matrix(-0.486887,-0.208108,-0.241521,0.565058,780.83,-11.3021)">
	<path d="M-340.8,1352.7c-29,53.8-11.5,121.4,56.2,125.5c11.3,0.7,23.3-2.4,33.9-6c25.6-8.8,41.5-25.6,53.7-45.7
		c12.8-21.3,21.5-46.3,31.9-70.3c1.5-3.4,5.9-5.1,9.8-3.9c3.9,1.3,6,5.1,4.5,8.5c-10.6,24.5-19.5,50-32.6,71.8
		c-13.8,23-32.3,41.8-61.6,51.9c-12.7,4.4-27.1,7.8-40.6,7c-78.4-4.8-102.5-81.8-69-144.2c1.8-3.3,6.3-4.7,10.1-3.2
		C-340.7,1345.5-339.1,1349.5-340.8,1352.7z" class="st4"></path>
</g>
<g transform="matrix(0.794494,0.339587,-0.339587,0.794494,-242.596,-256.484)">
	<path d="M1297.7,757c-9.1-0.4-19.4-2-26-8.8c-9.3-9.5-9.7-27.9,3.8-33.5c6.2-2.6,12.9-1,19.4-0.6
		c2.6,0.2,4.8-1.8,5-4.4c0.2-2.6-1.8-4.8-4.4-5c-7.9-0.5-16-1.8-23.5,1.3c-19.7,8.1-20.5,34.8-7,48.7c8.3,8.5,20.9,11.2,32.4,11.6
		c2.6,0.1,4.8-1.9,4.9-4.5C1302.3,759.2,1300.3,757.1,1297.7,757z" class="st4"></path>
</g>
<g transform="matrix(0.794494,0.339587,-0.339587,0.794494,-243.136,-256.284)">
	<path d="M1279.5,689c0,20.5,64.9,69.8,134.8,66.1c63-3.3,72.8-105.1,0-123.2C1328.3,610.5,1279.5,689,1279.5,689z" class="st4"></path>
</g>
<g transform="matrix(0.794494,0.339587,-0.339587,0.794494,-243.136,-256.284)">
	<path d="M1301.7,709.2c-6.4-0.2-12.7,0.6-19,2.1c-16.2,3.7-28.7,19.7-15.9,35.3c10.5,12.9,51.7,17.7,36.8,43.1
		c-10.3,17.4-35.6,15.5-52.2,11.6c-39.5-9.2-67.7-42.7-73.6-80.9c-6-38.3,27.1-77.8,64.4-86.1c32.1-7.1,73.2,4.1,81.6,39.2
		L1301.7,709.2z" class="st4"></path>
</g>
<g transform="matrix(0.783435,-0.215037,0.215037,0.783435,-404.599,196.657)">
	<path d="M1108.1,1424.9c-53.1,14.4-114.7,28.2-203.3,40.2c-37.9,5.3-76.2-6.6-104.3-32.5c-39.1-36-92.4-89.9-118-137.1
		c-8.2-15.2-13.5-29.6-14.3-42.4c-0.7-11.9,2.6-22.3,11.5-30.5c33.2-30.3,68.6-23.4,101-1.3c33.9,23.1,64.7,62.6,86.9,96
		c26.2,39.4,70.8,62.6,118.1,61.4c55.8-1.4,121.2-3.1,121.2-3.1c2.7-0.1,4.9-2.4,4.9-5.1c-0.1-2.7-2.4-4.9-5.1-4.9
		c0,0-65.4,1.7-121.2,3.1c-43.9,1.1-85.3-20.4-109.6-56.9c-22.9-34.4-54.7-74.9-89.6-98.7c-36.4-24.8-76.1-31.8-113.3,2.1
		c-21.7,19.8-17.7,50.8,0.8,85c26,48.1,80.2,103,120,139.7c30.3,27.9,71.6,40.8,112.4,35c89.2-12.1,151.1-26,204.5-40.5
		c2.7-0.7,4.2-3.5,3.5-6.1C1113.4,1425.8,1110.7,1424.2,1108.1,1424.9z" class="st4"></path>
</g>
<g transform="matrix(0.666271,-0.464858,0.464858,0.666271,-410.917,486.689)">
	<path d="M798.8,1377.2c16.8-25.5,42.7-44.3,74-47.1c6.6-0.6,17.3,0.7,25.2,4.6c3.9,1.9,7.1,4.3,8.2,7.8
		c0.6,2.2,0.3,4.7-1.1,7.7c-2.7,5.9-7.7,7.4-13,7.5c-7.1,0.1-14.9-1.9-21.4-2.4c-18.6-1.4-36.3,5.4-47.3,20.9
		c-1.6,2.2-1.1,5.4,1.2,6.9c2.2,1.6,5.3,1.1,6.9-1.2c8.9-12.6,23.3-17.8,38.4-16.7c6.7,0.5,14.9,2.5,22.3,2.4
		c9.1-0.2,17.2-3.2,21.9-13.2c2.6-5.6,2.8-10.5,1.6-14.7c-1.2-4.2-4-7.7-7.7-10.6c-9.6-7.2-26.4-9.8-36-9c-34.5,3-63,23.5-81.5,51.5
		c-1.5,2.3-0.9,5.4,1.4,6.9C794.2,1380.1,797.3,1379.5,798.8,1377.2z" class="st4"></path>
</g>
<g transform="matrix(0.666271,-0.464858,0.464858,0.666271,-410.917,486.689)">
	<path d="M829.9,1383.9c24-3.6,53.2-2.7,69.9,16.9c4.1,4.8,8.1,9.8,8.7,16.3c0.8,8.2-4.1,17.5-13.2,15.2
		c-3.3-0.9-5.8-3.8-8.2-6.9c-3.2-4.2-6.1-8.8-9.1-11.9c-7.1-7.5-17.1-11.3-26.3-15.4c-2.5-1.1-5.5,0-6.6,2.5c-1.1,2.5,0,5.5,2.5,6.6
		c8.1,3.6,16.9,6.6,23.2,13.2c3.4,3.6,6.7,9.3,10.6,13.8c3.3,3.8,7.1,6.7,11.5,7.9c16.3,4.3,27-10.9,25.6-25.7
		c-0.8-8.6-5.6-15.5-11.1-21.8c-18.9-22.2-51.8-24.4-79-20.3c-2.7,0.4-4.6,2.9-4.2,5.7C824.7,1382.4,827.2,1384.3,829.9,1383.9z" class="st4"></path>
</g>
<g transform="matrix(0.666271,-0.464858,0.464858,0.666271,-410.917,486.689)">
	<path d="M845.6,1405.7c11.4,11.3,19.7,19.6,18.2,37.1c-0.2,2.8-1.2,6.2-3,8.9c-1.2,1.8-2.9,3.4-5.3,3.1
		c-1.8-0.2-2.7-1.9-3.7-3.6c-1.8-3.1-3.2-6.7-4.7-9c-5.4-8.8-13.6-15-22.1-20.6c-2.3-1.5-5.4-0.9-6.9,1.4c-1.5,2.3-0.9,5.4,1.4,6.9
		c7.3,4.8,14.5,9.9,19.1,17.5c1.8,2.9,3.5,7.6,6,11.1c2.5,3.4,5.7,5.8,9.7,6.3c5.2,0.6,9.5-1.5,12.7-4.9c4-4.3,6.2-10.9,6.6-16.1
		c1.7-21.1-7.5-31.4-21.2-45c-2-1.9-5.1-1.9-7,0C843.6,1400.6,843.6,1403.7,845.6,1405.7z" class="st4"></path>
</g>
<path d="M691.7,1651.9c-0.9-8.2-4.3-16.8-10.3-26.1L543.6,1411l-6.3-10.8c-0.8-1.3-2-2.2-3.4-2.6
	c-1.4-0.4-3-0.1-4.2,0.7l-35.3,21.6c-2,1.2-3,3.7-2.5,6l30.8,128.4c4.6,19.1,7.3,36.2,8.3,52.2c1.2,19.4,0.9,36.6-0.9,52.5
	l-5.7,50.6c3.7-0.4,7.5-0.8,11.2-1.2l5.4-48.1c1.9-16.6,2.2-34.4,0.9-54.5c-1-16.7-3.8-34.4-8.6-54.1l-29.9-124.5l27.1-16.6l3.5,6
	c0,0.1,0.1,0.1,0.1,0.2l137.9,214.9c5.1,8,7.9,14.8,8.6,21.4c1.1,9.7,0.5,17.3-1.9,23.9l-2.7,7.4c4.3-1,8.5-2,12.8-3l0.2-0.7
	C692.1,1672.5,693,1663.4,691.7,1651.9z M799.7,1644.6c-0.8-25.2-8-50.5-21.3-75.3l-120.7-225c0-0.1-0.1-0.1-0.1-0.2l-33.5-57
	c-0.5-0.8-1.1-1.4-1.9-1.9l-25.9-54.3c-0.9-2-2.9-3.2-5.1-3.1l-206.4,5.9c-1.4,0-2.7,0.6-3.7,1.6c-37.8,36.9-58.8,75.8-38.7,145.5
	c0,0.6,0,1.2,0.2,1.8l18.3,63.5c0,0.1,0.1,0.1,0.1,0.2l47.7,141.3c4.1,12.3,6.7,22.3,8.2,31.6c2,12.8,2.8,23.3,2.6,32.8l-1.4,62.8
	l-0.2,8.1l-3.8,170.4l-3,44.4c-0.1,1.5,0.4,2.9,1.4,4c1,1.1,2.3,1.8,3.8,1.9l89.1,6c0.1,0,0.2,0,0.4,0c2.9,0,5.3-2.2,5.5-5.1l3-44.4
	l20.7-183.5l0.9-8.2l5.4-48.1c1.9-16.6,2.2-34.4,0.9-54.5c-1-16.7-3.8-34.4-8.6-54.1l-29.9-124.5l27.1-16.6l3.5,6
	c0,0.1,0.1,0.1,0.1,0.2l137.9,214.9c5.1,8,7.9,14.8,8.6,21.4c1.1,9.7,0.5,17.3-1.9,23.9l-2.7,7.4l-3.2,8.9L613.3,1857l-16.9,41.2
	c-0.5,1.3-0.5,2.9,0,4.2c0.6,1.4,1.6,2.4,3,3l82.6,33.8c1.4,0.6,2.9,0.6,4.2,0c1.4-0.6,2.4-1.6,3-3l16.9-41.2l79.4-174.3
	c8.7-19,13.4-40.1,14.2-62.8c0.1-2.8,0.1-5.6,0.1-8.5C799.8,1647.8,799.7,1646.2,799.7,1644.6z M775.4,1716.1L696,1890.5
	c0,0.1-0.1,0.1-0.1,0.2l-14.8,36.2l-72.5-29.6l14.8-36.2c0-0.1,0-0.1,0.1-0.2l62.1-170.5l3.3-9l0.2-0.7c3-8.2,3.8-17.4,2.6-28.9
	c-0.9-8.2-4.3-16.8-10.3-26.1L543.6,1411l-6.3-10.8c-0.8-1.3-2-2.2-3.4-2.6c-1.4-0.4-3-0.1-4.2,0.7l-35.3,21.6c-2,1.2-3,3.7-2.5,6
	l30.8,128.4c4.6,19.1,7.3,36.2,8.3,52.2c1.2,19.4,0.9,36.6-0.9,52.5l-5.7,50.6l-0.9,8.1L503.1,1899c0,0.1,0,0.2,0,0.2l-2.6,39
	l-78.1-5.2l2.6-39.1c0-0.1,0-0.2,0-0.2l3.8-170.8l0.2-8.1l1.4-62.6c0.2-10.2-0.6-21.3-2.7-34.8c-1.5-9.9-4.2-20.6-8.6-33.4
	l-47.6-141.2l-17.4-60.4c0.1-0.4,0.2-0.8,0.3-1.3c0.1-1.7-0.5-3.3-1.6-4.4c-18-63.2-0.2-97.8,34.5-132.2l200.7-5.8l25.7,53.8
	c0.5,1.1,1.4,2,2.5,2.5l31.9,54.3l120.6,225c12.5,23.3,19.2,47,20,70.5c0.1,2.7,0.1,5.4,0.1,8.1c0,2.9-0.1,5.7-0.3,8.5
	C787.4,1681.2,783,1699.5,775.4,1716.1z M691.7,1651.9c-0.9-8.2-4.3-16.8-10.3-26.1L543.6,1411l-6.3-10.8c-0.8-1.3-2-2.2-3.4-2.6
	c-1.4-0.4-3-0.1-4.2,0.7l-35.3,21.6c-2,1.2-3,3.7-2.5,6l30.8,128.4c4.6,19.1,7.3,36.2,8.3,52.2c1.2,19.4,0.9,36.6-0.9,52.5
	l-5.7,50.6c3.7-0.4,7.5-0.8,11.2-1.2l5.4-48.1c1.9-16.6,2.2-34.4,0.9-54.5c-1-16.7-3.8-34.4-8.6-54.1l-29.9-124.5l27.1-16.6l3.5,6
	c0,0.1,0.1,0.1,0.1,0.2l137.9,214.9c5.1,8,7.9,14.8,8.6,21.4c1.1,9.7,0.5,17.3-1.9,23.9l-2.7,7.4c4.3-1,8.5-2,12.8-3l0.2-0.7
	C692.1,1672.5,693,1663.4,691.7,1651.9z" class="st4"></path>
<g transform="matrix(-0.919526,-0.393029,-0.393029,0.919526,1953.72,729.133)">
	<path d="M1284.4,623.4c-17.7,20.3-14.1,54.1,1.2,75c8.2,11.2,24.2,22.6,38.6,15.7c12.9-6.1,9-29.4,5.7-39.6
		c-0.9-2.8-2.1-7-4.3-9.1c-0.8-0.7,1.3,1.7,2,2.5c0.8,0.9,1.5,1.9,2.3,2.8c2,2.4,3.4,3.8,5.8,5.9c6.8,5.9,17.9,11.7,27.1,8.4
		c9.9-3.5,9.6-13.5,5.2-21.4c-1.6-2.8-3.5-5.6-5.6-8c-1-1.2-1.7-1.8-2.9-2.6c-0.5-0.4-2.3-0.9-1.7-1c12.6-2.3,35.6,6.4,38.9-13.4
		c1.7-10.3-7.7-18.9-16.2-22.5c-8.3-3.4-17.8-4-26.6-4.6c-9.3-0.7-19.1-1.7-28.3,0.2L1284.4,623.4z" class="st4"></path>
</g>
<g transform="matrix(-0.919526,-0.393029,-0.393029,0.919526,1953.72,729.133)">
	<path d="M1181.2,600.8c-11.1-2.9-23.9-1.3-34.6,2.3c-5.6,1.9-12,5.5-13.4,11.8c-3.3,15.2,20.5,17.5,30.3,15.5
		c1.4-0.3-2.5,1-3.8,1.5c-3.3,1.3-4.6,1.7-7.9,3c-8.5,3.5-21.4,10.9-18.6,22.4c2.1,8.1,15.1,5.9,20.8,4.3c2.3-0.7,4.6-1.5,6.8-2.5
		c0.7-0.3,2.1-1.7,1.9-1c-0.3,1.3-3.4,4.6-4.1,5.7c-3,4.5-5.6,10.7-4.3,16.3c1.2,5.2,6,5.8,10.6,4.5c5.7-1.6,12.3-8.5,14.6-14.2
		c1.2-3-0.4-7-1-9.9c-0.9-4.4-0.9-8.8-1.1-13.3c-0.6-14.8,1.6-31.7,7.8-45.3L1181.2,600.8z" class="st4"></path>
</g>
<g transform="matrix(-0.761348,0.648344,0.648344,0.761348,1391.57,-990.703)">
	<path d="M1817.6,1197.8c-25,23.5-50.4,45-64,52.7c-1.9,1.1-4.4,0.4-5.5-1.5c-1.1-1.9-0.4-4.4,1.5-5.5
		c13.2-7.5,38-28.6,62.4-51.5c1.6-1.5,4.2-1.4,5.7,0.2S1819.2,1196.3,1817.6,1197.8z" class="st4"></path>
</g>
<g transform="matrix(-0.694356,0.844561,0.609928,0.501453,1331.83,-1215.2)">
	<path d="M1889.2,1521.6c0.3-0.4,1.9-2.3,3.5-3.9c6-6.1,17.5-17,32-31.5c29.2-29.2,70.3-73.1,102.3-122.7
		c21.6-33.5,39.1-69.7,46.2-105.8c0.5-2.7-0.6-5.5-2.6-6.3c-2-0.7-4,0.9-4.5,3.6c-6.8,34.7-23.7,69.4-44.5,101.7
		c-31.6,49-72.3,92.3-101.1,121.2c-16.6,16.6-29.4,28.5-34.4,34c-1.8,2-2.8,3.7-3.1,4.5c-10.4,27.3-30,39.4-50.5,38.4
		c-31.4-1.6-65-33.7-73.1-90.4c-0.4-2.8-2.3-4.6-4.3-4c-2,0.5-3.3,3.2-2.9,6c8.8,62,45.7,96.9,80.1,98.6
		C1855.3,1566.2,1877.4,1552.3,1889.2,1521.6z" class="st4"></path>
</g>
<g transform="matrix(-0.67733,0,0,0.28404,1412.68,263.376)">
	<path d="M1400.6,3284.6c-0.3-7-0.6-13.9-0.7-20.9c-0.5-26.3-0.4-52.6-1-78.8c-0.4-18.3-1.3-36.5,0-54.8
		c0.5-7.7-1.6-15.1-4.9-16.4c-3.2-1.3-6.3,3.9-6.9,11.6c-1.4,20.4-0.6,40.7-0.2,61.1c0.6,26.2,0.5,52.4,1,78.5
		c0.1,8.5,0.5,17,0.9,25.4c0.1,3.2,0.1,3.7,0.1,5.7c-0.3,1.9-0.6,4.2-0.6,5.4c-0.1,3.7,0.3,6.8,1.1,9.3c0.8,2.8,2.4,7.1,6.1,6.3
		c8-1.8,18.9-18,24-24c17.4-20.5,33.4-42.5,49.5-63.9c4.6-6.1,9.5-11.9,14.1-18c0.8,7.1,0.8,14.3,1.1,21.5
		c0.4,11.6,0.6,23.3,1.3,34.9c0.9,14.9,2.5,29.7,3.1,44.5c0.3,7.8,3.3,13.5,6.6,12.7c3.3-0.8,5.7-7.8,5.3-15.6
		c-0.7-15.2-2.3-30.4-3.1-45.5c-0.7-11.1-0.8-22.2-1.2-33.4c-0.5-13.3-0.7-26.6-3.6-39.6c-0.5-3.5-1.4-8.6-2.6-10.5
		c-1-1.7-2.5-3.3-4.9-2.8c-0.9,0.2-2.4,1.2-3.9,3.2c-1.3,1.7-3.5,5.2-3.8,5.7c-4.6,6.2-9.6,12-14.2,18.1c-15.9,21.2-31.8,43-49,63.3
		C1411.2,3271,1405.8,3279.4,1400.6,3284.6z M1492.5,3190.8c0.2,1.3,0.4,3.3,0.4,3.3S1492.8,3192.7,1492.5,3190.8z" class="st4"></path>
</g>
<g transform="matrix(1,0,0,1,9.52384,-28.1598)">
	<path d="M963.6,1033.3c-1.9-3.3-3.8-7-5-10.6c-1.6-5.3-1.7-10.4,0.8-14.6c1.8-3.1,4.1-4.7,6.5-5.4
		c2.3-0.7,4.9-0.5,7.4,0.4c5.8,2,11.9,8,14.8,11.2c1.5,1.6,6.7,7.9,8.4,9.3c1.7,1.4,2,3.9,0.6,5.7c-1.4,1.7-3.9,2-5.7,0.6
		c-1.9-1.5-7.7-8.4-9.3-10.1c-2-2.2-5.7-6-9.5-8.2c-1.5-0.8-3.1-1.6-4.4-1.1c-0.7,0.2-1.3,0.8-1.9,1.8c-1.4,2.3-0.9,5.1,0,8
		c1.8,5.7,5.7,11.4,8.1,14.9c1.5,2.2,3.2,4.2,4.7,6.4c0.5,0.7,1.7,1.8,2.2,2.5c0.6,0.9,0.9,1.8,0.9,2.5c0.1,1.1-0.2,2-0.8,2.8
		c-0.5,0.7-1.4,1.5-3,1.8c-0.7,0.1-2,0-3.5-0.9c-1.5-0.9-4.1-3.4-4.7-3.9c-3.2-2.4-6.3-5-10.2-5.6c-3.1-0.5-5.3-0.5-6.4,1
		c-1.1,1.5-0.7,3.8,0.5,6.6c2.2,5.4,6.1,9.5,10.1,13.5c4.6,4.6,9.5,9,13,14.5c1.1,1.7,0.7,2.9,0.5,3.5c-0.5,1.5-1.6,2.9-4,2.8
		c-0.3,0-0.8-0.1-1.3-0.2c-0.3-0.1-1.4-0.7-1.6-0.8c-0.7-0.3-1.4-0.6-2.1-1c-2.1-1-4.2-2-6.4-2.8c-2.9-1.1-7.4-2.3-11.5-2.2
		c-2.9,0-5.7,0.6-6.8,3.4c-0.2,0.6-0.1,1.3,0.1,1.9c0.4,1.2,1,2.3,1.6,3.3c3.4,5.9,10.4,10.1,16.2,13.3c2.5,1.4,5.1,2.6,7.9,3.3
		c2.2,0.6,3.5,2.8,2.9,4.9c-0.6,2.2-2.8,3.5-4.9,2.9c-3.5-0.9-6.7-2.4-9.8-4.1c-6.9-3.9-15.1-9.2-19.2-16.3c-2-3.5-3.8-8-2.2-12.2
		c1.9-5,6-7.5,11-8.3c3.9-0.6,8.3-0.1,12.2,0.8l-1.1-1.1c-4.8-4.8-9.3-9.8-11.9-16.2c-2.5-6.3-1.9-11.4,0.6-14.6
		c2.5-3.3,7.3-5.2,14.2-4C962.2,1032.9,962.9,1033.1,963.6,1033.3z" class="st5"></path>
</g>
<g transform="matrix(0.258819,0.965926,-0.965926,0.258819,300.126,-767.671)">
	<path d="M2681.8-33.5l50.3,100.7l-100.7,0L2681.8-33.5z" class="st3"></path>
</g>
<g transform="matrix(-0.865116,0.501572,-0.501572,-0.865116,1426.51,-65.7242)">
	<path d="M1818.3-708.5l50.3,100.7l-100.7,0L1818.3-708.5z" class="st4"></path>
</g>
<path d="M418,1714.9c-36.4-0.2-71.3-2.7-103.7-7.8c-31.6-5-61.1-14.1-86.3-27c16.9-16.9,30.3-35.6,39.3-55.7
	c7.5-16.5,13.1-40.6,10.9-63.2c-1.5-15.4-6.6-30.1-17.1-41.4c-11.1-12.1-28.4-20.4-54-21.2c-20.2-0.7-35,4.9-45.7,13.9
	c-24.7,20.7-27,59.8-20.2,83.5c10.1,35.5,36.8,64.7,73.4,85.8c-44.4,40.8-109.8,70-180.2,81.7c-2.2,0.4-3.7,2.5-3.3,4.7
	c0.4,2.2,2.5,3.7,4.6,3.3c73.1-12.2,140.7-42.9,186.3-85.6c26.4,13.9,57.5,23.9,91.1,29.1c32.8,5.1,68,7.7,104.8,7.9
	c3.6,0,7.3,0,11,0l0.2-8.1C425.3,1714.9,421.7,1714.9,418,1714.9z M220.6,1676.2c-35.8-20-61.9-48-71.7-82.3
	c-8.6-30.2-1.5-89,57.9-87.1c22.9,0.8,38.4,7.8,48.3,18.6c9.3,10,13.6,23.1,15,36.7c2.1,21.1-3.2,43.6-10.2,59.1
	C251,1641,237.5,1659.5,220.6,1676.2z M1104.3,1359.7c-7.9-47.3-40.1-92.6-102.6-128.8c-1.9-1.1-4.4-0.5-5.5,1.5
	c-1.1,1.9-0.5,4.4,1.5,5.5c59.9,34.7,91.1,77.9,98.7,123.1c11.4,68.1-30.6,140.5-106.5,195.6c-48.3,35.1-114.9,66.9-190.1,92.7
	c-3.6,1.2-7.3,2.5-11,3.7c0,2.9-0.1,5.7-0.3,8.5c3.8-1.2,7.5-2.5,11.2-3.7c77.2-26.2,145.6-58.8,195-94.6
	C1073.4,1506.1,1116.1,1430.4,1104.3,1359.7z M535.7,1708.4c-3.7,0.4-7.5,0.8-11.2,1.2l-0.9,8.1c3.7-0.4,7.5-0.8,11.2-1.2
	c46-5.1,92.5-13,138.1-23.2c4.3-1,8.5-1.9,12.8-2.9l3.3-9c-4.2,1-8.5,2-12.8,3C629.8,1695,582.4,1703.2,535.7,1708.4z" class="st4"></path>
<path d="M304,484.6v30.6V484.6z M244.1,513.4l23.9,19.1L244.1,513.4z M229.3,578.2l29.9-6.8L229.3,578.2z M270.7,630.1
	l13.3-27.6L270.7,630.1z M337.2,630.1l-13.3-27.6L337.2,630.1z M378.6,578.2l-29.9-6.8L378.6,578.2z M363.8,513.4l-23.9,19.1
	L363.8,513.4z" class="st1"></path>
<path d="M273.2,631.3l13.3-27.6c0.6-1.3,0.1-3-1.3-3.6c-1.3-0.6-3-0.1-3.6,1.3L268.3,629c-0.6,1.3-0.1,3,1.3,3.6
	C270.9,633.2,272.5,632.7,273.2,631.3L273.2,631.3z M339.6,629l-13.3-27.6c-0.6-1.3-2.3-1.9-3.6-1.3c-1.3,0.6-1.9,2.3-1.3,3.6
	l13.3,27.6c0.6,1.3,2.3,1.9,3.6,1.3C339.7,631.9,340.3,630.3,339.6,629L339.6,629z M379.2,575.6l-29.9-6.8c-1.5-0.3-2.9,0.6-3.2,2
	c-0.3,1.5,0.6,2.9,2,3.2l29.9,6.8c1.5,0.3,2.9-0.6,3.2-2C381.6,577.3,380.7,575.9,379.2,575.6L379.2,575.6z M229.9,580.8l29.9-6.8
	c1.5-0.3,2.4-1.8,2-3.2c-0.3-1.5-1.8-2.4-3.2-2l-29.9,6.8c-1.5,0.3-2.4,1.8-2,3.2C227,580.3,228.5,581.2,229.9,580.8L229.9,580.8z
	 M242.4,515.5l23.9,19.1c1.2,0.9,2.9,0.7,3.8-0.4c0.9-1.2,0.7-2.9-0.4-3.8l-23.9-19.1c-1.2-0.9-2.9-0.7-3.8,0.4
	C241.1,512.9,241.2,514.6,242.4,515.5L242.4,515.5z M362.1,511.3l-23.9,19.1c-1.2,0.9-1.4,2.6-0.4,3.8c0.9,1.2,2.6,1.4,3.8,0.4
	l23.9-19.1c1.2-0.9,1.4-2.6,0.4-3.8C365,510.6,363.3,510.4,362.1,511.3L362.1,511.3z M301.3,484.6v30.6c0,1.5,1.2,2.7,2.7,2.7
	c1.5,0,2.7-1.2,2.7-2.7v-30.6c0-1.5-1.2-2.7-2.7-2.7C302.5,481.9,301.3,483.1,301.3,484.6L301.3,484.6z" class="st1"></path>
<path d="M2130.6,595.5v30.6V595.5z M2070.7,624.4l23.9,19.1L2070.7,624.4z M2055.9,689.1l29.9-6.8L2055.9,689.1z
	 M2097.3,741.1l13.3-27.6L2097.3,741.1z M2163.8,741.1l-13.3-27.6L2163.8,741.1z M2205.2,689.1l-29.9-6.8L2205.2,689.1z
	 M2190.4,624.4l-23.9,19.1L2190.4,624.4z" class="st1"></path>
<path d="M2099.8,742.3l13.3-27.6c0.6-1.3,0.1-3-1.3-3.6c-1.3-0.6-3-0.1-3.6,1.3l-13.3,27.6c-0.6,1.3-0.1,3,1.3,3.6
	C2097.5,744.2,2099.1,743.6,2099.8,742.3L2099.8,742.3z M2166.2,739.9l-13.3-27.6c-0.6-1.3-2.3-1.9-3.6-1.3
	c-1.3,0.6-1.9,2.3-1.3,3.6l13.3,27.6c0.6,1.3,2.3,1.9,3.6,1.3C2166.3,742.9,2166.9,741.3,2166.2,739.9L2166.2,739.9z M2205.8,686.5
	l-29.9-6.8c-1.5-0.3-2.9,0.6-3.2,2c-0.3,1.5,0.6,2.9,2,3.2l29.9,6.8c1.5,0.3,2.9-0.6,3.2-2C2208.2,688.3,2207.3,686.8,2205.8,686.5
	L2205.8,686.5z M2056.5,691.8l29.9-6.8c1.5-0.3,2.4-1.8,2-3.2c-0.3-1.5-1.8-2.4-3.2-2l-29.9,6.8c-1.5,0.3-2.4,1.8-2,3.2
	C2053.6,691.2,2055,692.1,2056.5,691.8L2056.5,691.8z M2069,626.5l23.9,19.1c1.2,0.9,2.9,0.7,3.8-0.4c0.9-1.2,0.7-2.9-0.4-3.8
	l-23.9-19.1c-1.2-0.9-2.9-0.7-3.8,0.4C2067.6,623.8,2067.8,625.5,2069,626.5L2069,626.5z M2188.7,622.2l-23.9,19.1
	c-1.2,0.9-1.4,2.6-0.4,3.8c0.9,1.2,2.6,1.4,3.8,0.4l23.9-19.1c1.2-0.9,1.4-2.6,0.4-3.8C2191.6,621.5,2189.9,621.3,2188.7,622.2
	L2188.7,622.2z M2127.9,595.5v30.6c0,1.5,1.2,2.7,2.7,2.7c1.5,0,2.7-1.2,2.7-2.7v-30.6c0-1.5-1.2-2.7-2.7-2.7
	C2129.1,592.8,2127.9,594,2127.9,595.5L2127.9,595.5z" class="st1"></path>
</svg>